<?xml version="1.0" encoding="utf-8"?>
<!-- Generator: Adobe Illustrator 15.0.0, SVG Export Plug-In . SVG Version: 6.00 Build 0)  -->
<!DOCTYPE svg PUBLIC "-//W3C//DTD SVG 1.1//EN" "http://www.w3.org/Graphics/SVG/1.1/DTD/svg11.dtd">
<svg version="1.1" id="Layer_1" xmlns="http://www.w3.org/2000/svg" xmlns:xlink="http://www.w3.org/1999/xlink" x="0px" y="0px"
	 width="128px" height="128px" viewBox="0 0 128 128" enable-background="new 0 0 128 128" xml:space="preserve">
<g>
	<g>
		<path fill="#FABC05" d="M64.004,0.321C28.931,0.321,0.5,28.753,0.5,63.825c0,35.073,28.431,63.505,63.504,63.505
			c35.073,0,63.504-28.432,63.504-63.505C127.508,28.753,99.077,0.321,64.004,0.321 M64.004,105.675
			c-23.113,0-41.85-18.737-41.85-41.85c0-23.112,18.737-41.849,41.85-41.849s41.85,18.737,41.85,41.849
			C105.854,86.938,87.117,105.675,64.004,105.675"/>
	</g>
	<g>
		<defs>
			<path id="SVGID_1_" d="M22.154,63.826c0-23.113,18.738-41.85,41.851-41.85c23.112,0,41.849,18.737,41.849,41.85
				c0,23.113-18.737,41.85-41.849,41.85C40.892,105.676,22.154,86.939,22.154,63.826 M0.5,63.826
				c0,35.073,28.432,63.504,63.505,63.504c35.072,0,63.503-28.431,63.503-63.504c0-35.073-28.431-63.504-63.503-63.504
				C28.932,0.322,0.5,28.753,0.5,63.826"/>
		</defs>
		<clipPath id="SVGID_2_">
			<use xlink:href="#SVGID_1_"  overflow="visible"/>
		</clipPath>
		<path clip-path="url(#SVGID_2_)" fill="#34A853" d="M64.004,66.5l-0.5,67.505c0,0,69.005-1.505,71.005-67.505H64.004z"/>
		<path clip-path="url(#SVGID_2_)" fill="none" stroke="#FFFFFF" stroke-width="4" stroke-miterlimit="10" d="M64.004,66.5
			l-0.5,67.505c0,0,69.005-1.505,71.005-67.505H64.004z"/>
		<path clip-path="url(#SVGID_2_)" fill="#EA4235" d="M64.004,66.5l0.5-67.505C64.504-1.005-4.5-0.5-6.5,66.5H64.004z"/>
		<path clip-path="url(#SVGID_2_)" fill="none" stroke="#FFFFFF" stroke-width="4" stroke-miterlimit="10" d="M64.004,66.5
			l0.5-67.505C64.504-1.005-4.5-0.5-6.5,66.5H64.004z"/>
		<path clip-path="url(#SVGID_2_)" fill="#4385F5" d="M64.5,64.326l67.505,0.5c0,0-2.001-70.5-68.001-72.5L64.5,64.326z"/>
		<path clip-path="url(#SVGID_2_)" fill="none" stroke="#FFFFFF" stroke-width="4" stroke-miterlimit="10" d="M64.5,64.326
			l67.505,0.5c0,0-2.001-70.5-68.001-72.5L64.5,64.326z"/>
		<use xlink:href="#SVGID_1_"  overflow="visible" fill="none" stroke="#FFFFFF" stroke-miterlimit="10"/>
	</g>
</g>
<g>
	<g id="bluetooth">
		<path fill="#EA4235" d="M87.828,47.424l-21.09-21.09h-3.7v28.12l-17.021-17.02l-5.18,5.18l20.72,20.72l-20.72,20.72l5.18,5.18
			l17.021-17.021v28.121h3.7l21.09-21.09l-15.91-15.91L87.828,47.424z M70.438,40.393l7.03,7.031l-7.03,7.03V40.393z M77.468,79.243
			l-7.03,7.03v-14.06L77.468,79.243z"/>
	</g>
</g>
</svg>
